<?xml version="1.0" encoding="utf-8"?>
<svg viewBox="14.04 26.26 746.84 146.11" width="746.84" height="146.11" xmlns="http://www.w3.org/2000/svg">
  <g>
    <g>
      <path d="M655.77,46.2c-0.63-0.46-1.06-1.1-1.3-1.9c-0.15-0.49-0.22-1.03-0.22-1.61c0-0.62,0.07-1.18,0.22-1.67 c0.24-0.78,0.68-1.39,1.31-1.83c0.63-0.44,1.39-0.66,2.27-0.66c0.86,0,1.6,0.22,2.21,0.66c0.61,0.44,1.04,1.05,1.3,1.82 c0.17,0.53,0.25,1.08,0.25,1.66c0,0.57-0.07,1.1-0.22,1.6c-0.23,0.82-0.66,1.47-1.29,1.93c-0.63,0.47-1.38,0.7-2.27,0.7 C657.16,46.9,656.4,46.66,655.77,46.2z M658.93,44.67c0.24-0.21,0.42-0.5,0.52-0.87c0.08-0.34,0.13-0.71,0.13-1.11 c0-0.44-0.04-0.82-0.13-1.12c-0.12-0.36-0.29-0.64-0.54-0.84c-0.24-0.2-0.54-0.3-0.88-0.3c-0.36,0-0.66,0.1-0.89,0.3 c-0.24,0.2-0.41,0.48-0.51,0.84c-0.08,0.25-0.13,0.63-0.13,1.12c0,0.47,0.04,0.84,0.11,1.11c0.11,0.37,0.28,0.66,0.53,0.87 c0.25,0.21,0.55,0.32,0.91,0.32C658.39,44.98,658.68,44.88,658.93,44.67z"/>
      <path d="M669.53,39.3c0.52,0.52,0.77,1.22,0.77,2.1v5.18c0,0.05-0.02,0.1-0.06,0.13c-0.04,0.04-0.08,0.06-0.13,0.06h-1.85 c-0.05,0-0.1-0.02-0.13-0.06c-0.04-0.04-0.06-0.08-0.06-0.13v-4.72c0-0.42-0.12-0.76-0.36-1.03c-0.24-0.26-0.55-0.39-0.94-0.39 c-0.39,0-0.7,0.13-0.94,0.39c-0.24,0.26-0.36,0.61-0.36,1.03v4.72c0,0.05-0.02,0.1-0.06,0.13c-0.04,0.04-0.08,0.06-0.13,0.06 h-1.85c-0.05,0-0.1-0.02-0.13-0.06c-0.04-0.04-0.06-0.08-0.06-0.13v-7.74c0-0.05,0.02-0.1,0.06-0.13 c0.04-0.04,0.08-0.06,0.13-0.06h1.85c0.05,0,0.1,0.02,0.13,0.06c0.04,0.04,0.06,0.08,0.06,0.13v0.55c0,0.03,0.01,0.05,0.03,0.06 c0.02,0.01,0.04,0.01,0.05-0.02c0.43-0.61,1.07-0.92,1.93-0.92C668.33,38.52,669.01,38.78,669.53,39.3z"/>
      <path d="M676.94,35.77c0.04-0.04,0.08-0.06,0.13-0.06h1.85c0.05,0,0.1,0.02,0.13,0.06c0.04,0.04,0.06,0.08,0.06,0.13v10.68 c0,0.05-0.02,0.1-0.06,0.13c-0.04,0.04-0.08,0.06-0.13,0.06h-1.85c-0.05,0-0.1-0.02-0.13-0.06c-0.04-0.04-0.06-0.08-0.06-0.13 v-0.52c0-0.03-0.01-0.05-0.03-0.06c-0.02-0.01-0.04,0-0.06,0.02c-0.44,0.58-1.05,0.87-1.82,0.87c-0.74,0-1.37-0.21-1.9-0.62 c-0.53-0.41-0.91-0.97-1.15-1.69c-0.18-0.55-0.27-1.18-0.27-1.91c0-0.75,0.09-1.4,0.28-1.96c0.24-0.67,0.62-1.21,1.15-1.6 s1.17-0.59,1.94-0.59c0.76,0,1.35,0.26,1.77,0.79c0.02,0.03,0.04,0.04,0.06,0.03c0.02-0.01,0.03-0.03,0.03-0.06V35.9 C676.89,35.85,676.9,35.81,676.94,35.77z M676.87,42.71c0-0.71-0.12-1.26-0.35-1.66c-0.24-0.41-0.59-0.62-1.06-0.62 c-0.49,0-0.87,0.21-1.12,0.62c-0.26,0.41-0.39,0.97-0.39,1.67c0,0.63,0.11,1.16,0.33,1.58c0.26,0.45,0.65,0.68,1.17,0.68 c0.47,0,0.84-0.23,1.11-0.68C676.76,43.92,676.87,43.38,676.87,42.71z"/>
      <path d="M688.04,43.22c-0.01,0.13-0.08,0.19-0.21,0.19h-4.88c-0.06,0-0.08,0.03-0.06,0.08c0.03,0.21,0.09,0.42,0.17,0.63 c0.27,0.59,0.83,0.88,1.67,0.88c0.67-0.01,1.21-0.28,1.6-0.82c0.04-0.06,0.09-0.09,0.14-0.09c0.03,0,0.07,0.02,0.11,0.06 l1.14,1.12c0.05,0.05,0.08,0.1,0.08,0.14c0,0.02-0.02,0.06-0.06,0.13c-0.35,0.43-0.79,0.77-1.34,1c-0.55,0.24-1.15,0.36-1.8,0.36 c-0.91,0-1.67-0.21-2.3-0.62c-0.63-0.41-1.08-0.98-1.35-1.72c-0.22-0.53-0.33-1.22-0.33-2.07c0-0.58,0.08-1.09,0.24-1.53 c0.24-0.75,0.67-1.34,1.27-1.78c0.61-0.44,1.32-0.66,2.16-0.66c1.05,0,1.9,0.31,2.54,0.92c0.64,0.61,1.02,1.43,1.16,2.45 C688.04,42.27,688.06,42.72,688.04,43.22z M682.98,41.37c-0.04,0.14-0.08,0.31-0.11,0.51c0,0.05,0.03,0.08,0.08,0.08h2.73 c0.06,0,0.08-0.03,0.06-0.08c-0.05-0.31-0.08-0.45-0.08-0.44c-0.1-0.32-0.26-0.56-0.5-0.73c-0.24-0.17-0.53-0.26-0.88-0.26 C683.63,40.44,683.19,40.75,682.98,41.37z"/>
      <path d="M694.35,38.76c0.08,0.04,0.12,0.12,0.1,0.24l-0.33,1.8c-0.01,0.13-0.08,0.16-0.22,0.11c-0.16-0.05-0.34-0.08-0.55-0.08 c-0.08,0-0.2,0.01-0.35,0.03c-0.38,0.03-0.7,0.17-0.96,0.42c-0.26,0.25-0.4,0.58-0.4,0.99v4.31c0,0.05-0.02,0.1-0.06,0.13 c-0.04,0.04-0.08,0.06-0.13,0.06h-1.85c-0.05,0-0.1-0.02-0.13-0.06c-0.04-0.04-0.06-0.08-0.06-0.13v-7.74 c0-0.05,0.02-0.1,0.06-0.13c0.04-0.04,0.08-0.06,0.13-0.06h1.85c0.05,0,0.1,0.02,0.13,0.06c0.04,0.04,0.06,0.08,0.06,0.13v0.6 c0,0.03,0.01,0.05,0.03,0.06c0.02,0.01,0.04,0.01,0.05-0.02c0.43-0.63,1.01-0.95,1.74-0.95 C693.83,38.54,694.13,38.61,694.35,38.76z"/>
      <path d="M700.35,35.77c0.04-0.04,0.08-0.06,0.13-0.06h1.85c0.05,0,0.1,0.02,0.13,0.06c0.04,0.04,0.06,0.08,0.06,0.13v10.68 c0,0.05-0.02,0.1-0.06,0.13c-0.04,0.04-0.08,0.06-0.13,0.06h-1.85c-0.05,0-0.1-0.02-0.13-0.06c-0.04-0.04-0.06-0.08-0.06-0.13 v-0.52c0-0.03-0.01-0.05-0.03-0.06c-0.02-0.01-0.04,0-0.06,0.02c-0.44,0.58-1.05,0.87-1.82,0.87c-0.74,0-1.37-0.21-1.9-0.62 c-0.53-0.41-0.91-0.97-1.15-1.69c-0.18-0.55-0.27-1.18-0.27-1.91c0-0.75,0.09-1.4,0.28-1.96c0.24-0.67,0.62-1.21,1.15-1.6 s1.17-0.59,1.94-0.59c0.76,0,1.35,0.26,1.77,0.79c0.02,0.03,0.04,0.04,0.06,0.03c0.02-0.01,0.03-0.03,0.03-0.06V35.9 C700.29,35.85,700.31,35.81,700.35,35.77z M700.28,42.71c0-0.71-0.12-1.26-0.35-1.66c-0.24-0.41-0.59-0.62-1.06-0.62 c-0.49,0-0.87,0.21-1.12,0.62c-0.26,0.41-0.39,0.97-0.39,1.67c0,0.63,0.11,1.16,0.33,1.58c0.26,0.45,0.65,0.68,1.17,0.68 c0.47,0,0.84-0.23,1.11-0.68C700.17,43.92,700.28,43.38,700.28,42.71z"/>
      <path d="M711.45,43.22c-0.01,0.13-0.08,0.19-0.21,0.19h-4.88c-0.06,0-0.08,0.03-0.06,0.08c0.03,0.21,0.09,0.42,0.17,0.63 c0.27,0.59,0.83,0.88,1.67,0.88c0.67-0.01,1.21-0.28,1.6-0.82c0.04-0.06,0.09-0.09,0.14-0.09c0.03,0,0.07,0.02,0.11,0.06 l1.14,1.12c0.05,0.05,0.08,0.1,0.08,0.14c0,0.02-0.02,0.06-0.06,0.13c-0.35,0.43-0.8,0.77-1.34,1c-0.55,0.24-1.15,0.36-1.8,0.36 c-0.91,0-1.67-0.21-2.3-0.62c-0.63-0.41-1.08-0.98-1.35-1.72c-0.22-0.53-0.33-1.22-0.33-2.07c0-0.58,0.08-1.09,0.24-1.53 c0.24-0.75,0.67-1.34,1.27-1.78c0.61-0.44,1.32-0.66,2.16-0.66c1.05,0,1.9,0.31,2.54,0.92c0.64,0.61,1.02,1.43,1.16,2.45 C711.45,42.27,711.47,42.72,711.45,43.22z M706.39,41.37c-0.04,0.14-0.08,0.31-0.11,0.51c0,0.05,0.03,0.08,0.08,0.08h2.73 c0.06,0,0.08-0.03,0.06-0.08c-0.05-0.31-0.08-0.45-0.08-0.44c-0.1-0.32-0.26-0.56-0.5-0.73c-0.24-0.17-0.53-0.26-0.88-0.26 C707.04,40.44,706.6,40.75,706.39,41.37z"/>
      <path d="M720.07,43.22c-0.01,0.13-0.08,0.19-0.21,0.19h-4.88c-0.06,0-0.08,0.03-0.06,0.08c0.03,0.21,0.09,0.42,0.17,0.63 c0.27,0.59,0.83,0.88,1.67,0.88c0.67-0.01,1.21-0.28,1.6-0.82c0.04-0.06,0.09-0.09,0.14-0.09c0.03,0,0.07,0.02,0.11,0.06 l1.14,1.12c0.05,0.05,0.08,0.1,0.08,0.14c0,0.02-0.02,0.06-0.06,0.13c-0.35,0.43-0.8,0.77-1.34,1c-0.55,0.24-1.15,0.36-1.8,0.36 c-0.91,0-1.67-0.21-2.3-0.62c-0.63-0.41-1.08-0.98-1.35-1.72c-0.22-0.53-0.33-1.22-0.33-2.07c0-0.58,0.08-1.09,0.24-1.53 c0.24-0.75,0.67-1.34,1.27-1.78c0.61-0.44,1.32-0.66,2.16-0.66c1.05,0,1.9,0.31,2.54,0.92c0.64,0.61,1.02,1.43,1.16,2.45 C720.07,42.27,720.09,42.72,720.07,43.22z M715.01,41.37c-0.04,0.14-0.08,0.31-0.11,0.51c0,0.05,0.03,0.08,0.08,0.08h2.73 c0.06,0,0.08-0.03,0.06-0.08c-0.05-0.31-0.08-0.45-0.08-0.44c-0.1-0.32-0.26-0.56-0.5-0.73c-0.24-0.17-0.53-0.26-0.88-0.26 C715.66,40.44,715.23,40.75,715.01,41.37z"/>
      <path d="M721.5,46.71c-0.04-0.04-0.06-0.08-0.06-0.13V35.9c0-0.05,0.02-0.1,0.06-0.13c0.04-0.04,0.08-0.06,0.13-0.06h1.85 c0.05,0,0.1,0.02,0.13,0.06c0.04,0.04,0.06,0.08,0.06,0.13v10.68c0,0.05-0.02,0.1-0.06,0.13c-0.04,0.04-0.08,0.06-0.13,0.06h-1.85 C721.58,46.77,721.53,46.75,721.5,46.71z"/>
      <path d="M730.51,46.61l-2.53-7.76c-0.01-0.02-0.02-0.05-0.02-0.08c0-0.09,0.06-0.14,0.17-0.14h2.04c0.12,0,0.19,0.05,0.22,0.16 l1.3,4.79c0.01,0.03,0.03,0.05,0.05,0.05c0.02,0,0.04-0.02,0.05-0.05l1.3-4.79c0.03-0.11,0.1-0.16,0.22-0.16l2.04,0.03 c0.06,0,0.11,0.02,0.14,0.06c0.03,0.04,0.04,0.09,0.02,0.17l-2.51,7.72c-0.03,0.11-0.1,0.16-0.21,0.16h-2.07 C730.61,46.77,730.54,46.72,730.51,46.61z"/>
      <path d="M741.31,38.88c0.54,0.24,0.96,0.56,1.26,0.97c0.3,0.41,0.45,0.87,0.45,1.37v5.35c0,0.05-0.02,0.1-0.06,0.13 c-0.04,0.04-0.08,0.06-0.13,0.06h-1.85c-0.05,0-0.1-0.02-0.13-0.06c-0.04-0.04-0.06-0.08-0.06-0.13v-0.52 c0-0.03-0.01-0.05-0.03-0.06c-0.02-0.01-0.04,0-0.06,0.03c-0.44,0.58-1.15,0.87-2.13,0.87c-0.82,0-1.49-0.2-1.99-0.6 c-0.51-0.4-0.76-0.99-0.76-1.77c0-0.81,0.28-1.44,0.85-1.89c0.57-0.45,1.38-0.67,2.43-0.67h1.61c0.05,0,0.08-0.03,0.08-0.08v-0.35 c0-0.35-0.11-0.62-0.32-0.81c-0.21-0.19-0.53-0.29-0.95-0.29c-0.33,0-0.6,0.06-0.81,0.17c-0.22,0.12-0.36,0.28-0.42,0.49 c-0.03,0.12-0.1,0.17-0.21,0.16L736.18,41c-0.13-0.02-0.18-0.07-0.17-0.14c0.04-0.44,0.22-0.84,0.53-1.2 c0.31-0.36,0.72-0.64,1.23-0.84c0.51-0.2,1.08-0.3,1.71-0.3C740.17,38.52,740.78,38.64,741.31,38.88z M740.32,44.87 c0.32-0.24,0.47-0.55,0.47-0.93v-0.57c0-0.05-0.03-0.08-0.08-0.08h-1.14c-0.47,0-0.84,0.09-1.11,0.27 c-0.27,0.18-0.4,0.43-0.4,0.76c0,0.28,0.1,0.51,0.3,0.67c0.2,0.16,0.47,0.24,0.81,0.24C739.62,45.24,740,45.12,740.32,44.87z"/>
      <path d="M750.85,39.3c0.52,0.52,0.77,1.22,0.77,2.1v5.18c0,0.05-0.02,0.1-0.06,0.13c-0.04,0.04-0.08,0.06-0.13,0.06h-1.85 c-0.05,0-0.1-0.02-0.13-0.06c-0.04-0.04-0.06-0.08-0.06-0.13v-4.72c0-0.42-0.12-0.76-0.36-1.03c-0.24-0.26-0.55-0.39-0.94-0.39 s-0.7,0.13-0.94,0.39s-0.36,0.61-0.36,1.03v4.72c0,0.05-0.02,0.1-0.06,0.13c-0.04,0.04-0.08,0.06-0.13,0.06h-1.85 c-0.05,0-0.1-0.02-0.13-0.06c-0.04-0.04-0.06-0.08-0.06-0.13v-7.74c0-0.05,0.02-0.1,0.06-0.13c0.04-0.04,0.08-0.06,0.13-0.06h1.85 c0.05,0,0.1,0.02,0.13,0.06c0.04,0.04,0.06,0.08,0.06,0.13v0.55c0,0.03,0.01,0.05,0.03,0.06c0.02,0.01,0.04,0.01,0.05-0.02 c0.43-0.61,1.07-0.92,1.93-0.92C749.66,38.52,750.34,38.78,750.85,39.3z"/>
    </g>
    <path d="M417.69,102.18c-4.9,5.67-12.14,9.26-20.22,9.26c-14.75,0-26.7-11.95-26.7-26.7c0-14.75,11.96-26.7,26.7-26.7 c7.83,0,14.87,3.37,19.76,8.73l-6.97,6.97c-3.09-3.6-7.67-5.87-12.79-5.87c-9.32,0-16.88,7.56-16.88,16.88 c0,9.32,7.55,16.88,16.88,16.88c5.37,0,10.15-2.51,13.24-6.42L417.69,102.18z"/>
    <path d="M76.1,58.03c-4.31,0-8.39,1.02-11.99,2.84v11.99c3.06-3.09,7.31-5.01,11.99-5.01c9.32,0,16.88,7.56,16.88,16.88 c0,9.32-7.55,16.88-16.88,16.88c-9.16,0-16.6-7.29-16.86-16.39c-0.01-0.16-0.01-0.33-0.01-0.5v-20.7V38.12h-9.83v46.61 c0,14.75,11.96,26.7,26.7,26.7s26.7-11.95,26.7-26.7C102.8,69.99,90.84,58.03,76.1,58.03z"/>
    <path d="M151.02,58.04v26.7h0c0,9.32-7.55,16.88-16.88,16.88c-9.32,0-16.88-7.55-16.88-16.88h0v-26.7h-9.83v26.7 c0,14.75,11.96,26.7,26.7,26.7c14.75,0,26.7-11.96,26.7-26.7v-26.7H151.02z"/>
    <path d="M550.66,58.04c-9,0-16.95,4.46-21.79,11.28c-4.84-6.82-12.79-11.28-21.79-11.28c-14.75,0-26.7,11.96-26.7,26.7v26.7h9.83 v-26.7h0c0-9.32,7.55-16.88,16.88-16.88s16.88,7.55,16.88,16.88h0v26.7h9.83v-26.7h0c0-9.32,7.55-16.88,16.88-16.88 c9.32,0,16.88,7.55,16.88,16.88h0v26.7h9.83v-26.7C577.36,69.99,565.4,58.04,550.66,58.04z"/>
    <path d="M209.06,38.12v25.92v20.7c0,0.16,0,0.33-0.01,0.5c-0.26,9.09-7.7,16.39-16.86,16.39c-9.32,0-16.88-7.56-16.88-16.88 c0-9.32,7.55-16.88,16.88-16.88c4.69,0,8.93,1.91,11.99,5.01V60.87c-3.6-1.82-7.68-2.84-11.99-2.84c-14.75,0-26.7,11.96-26.7,26.7 c0,14.75,11.96,26.7,26.7,26.7c14.75,0,26.7-11.95,26.7-26.7V38.12H209.06z"/>
    <path d="M366.13,67.86v-9.83h-16.69V38.12h-9.83v19.92v9.83v16.88c0,14.68,11.85,26.6,26.51,26.7v-9.83 c-9.24-0.1-16.68-7.61-16.68-16.87h0V67.86H366.13z"/>
    <path d="M334.98,84.74c0-14.75-11.96-26.7-26.7-26.7c-14.75,0-26.7,11.96-26.7,26.7c0,14.75,11.96,26.7,26.7,26.7 c11.48,0,21.26-7.23,25.04-17.39h-10.96c-3.02,4.56-8.2,7.57-14.08,7.57c-7.8,0-14.35-5.28-16.28-12.46h42.62 C334.85,87.72,334.98,86.24,334.98,84.74z M292.29,79.33c2.25-6.67,8.55-11.47,15.99-11.47c7.43,0,13.74,4.8,15.99,11.47H292.29z"/>
    <path d="M276.93,84.74v26.86c0,14.75-11.96,26.7-26.7,26.7c-14.75,0-26.7-11.96-26.7-26.7h9.83c0,9.32,7.55,16.88,16.88,16.88 s16.88-7.55,16.88-16.88V84.74c0-0.16,0-0.33-0.01-0.49c-0.25-9.09-7.7-16.39-16.86-16.39c-9.32,0-16.88,7.56-16.88,16.88 c0,9.32,7.55,16.88,16.88,16.88c4.69,0,8.93-1.91,11.99-5.01v11.99c-3.6,1.82-7.68,2.84-11.99,2.84c-14.75,0-26.7-11.95-26.7-26.7 c0-14.75,11.96-26.7,26.7-26.7C264.98,58.03,276.93,69.99,276.93,84.74z"/>
    <path d="M475.73,84.74v26.7h-9.83v-26.7c0-9.32-7.55-16.88-16.88-16.88c-9.32,0-16.88,7.56-16.88,16.88 c0,9.32,7.55,16.88,16.88,16.88c4.69,0,8.93-1.91,11.99-5.01v11.99c-3.6,1.82-7.68,2.84-11.99,2.84c-14.75,0-26.7-11.95-26.7-26.7 c0-14.75,11.96-26.7,26.7-26.7c14.58,0,26.44,11.69,26.7,26.21C475.73,84.41,475.73,84.57,475.73,84.74z"/>
    <path d="M606.04,26.26h-4.04h-19.47v11.68h19.47v19.47h11.68V37.94V33.9C613.68,29.68,610.26,26.26,606.04,26.26z"/>
    <path d="M25.72,160.68v-19.47H14.04v23.51c0,4.22,3.42,7.64,7.64,7.64h23.51v-11.68H25.72z"/>
    <g>
      <path d="M392.33,171.84l-7.3-16.17c-0.08-0.16-0.19-0.24-0.35-0.24h-5.43c-0.19,0-0.29,0.1-0.29,0.29v15.94 c0,0.19-0.07,0.36-0.2,0.49c-0.14,0.14-0.3,0.2-0.49,0.2h-6.83c-0.19,0-0.36-0.07-0.49-0.2c-0.14-0.14-0.2-0.3-0.2-0.49v-39.47 c0-0.19,0.07-0.36,0.2-0.5c0.13-0.13,0.3-0.2,0.49-0.2h16.7c2.49,0,4.68,0.51,6.57,1.52c1.89,1.01,3.35,2.45,4.38,4.32 c1.03,1.87,1.55,4.03,1.55,6.48c0,2.65-0.66,4.91-1.99,6.8c-1.32,1.89-3.17,3.22-5.55,4c-0.19,0.08-0.26,0.22-0.18,0.41 l7.94,16.53c0.08,0.16,0.12,0.27,0.12,0.35c0,0.31-0.21,0.47-0.64,0.47h-7.18C392.76,172.37,392.49,172.19,392.33,171.84z M378.96,138.85v9.98c0,0.19,0.1,0.29,0.29,0.29h7.65c1.63,0,2.97-0.48,4-1.46c1.03-0.97,1.55-2.24,1.55-3.8 c0-1.55-0.52-2.83-1.55-3.82c-1.03-0.99-2.37-1.49-4-1.49h-7.65C379.06,138.55,378.96,138.65,378.96,138.85z"/>
      <path d="M434.76,138.35c-0.14,0.14-0.3,0.2-0.5,0.2h-19.15c-0.19,0-0.29,0.1-0.29,0.29v9.05c0,0.19,0.1,0.29,0.29,0.29h12.55 c0.19,0,0.36,0.07,0.49,0.2c0.14,0.14,0.2,0.3,0.2,0.49v5.66c0,0.19-0.07,0.36-0.2,0.5c-0.14,0.13-0.3,0.2-0.49,0.2h-12.55 c-0.19,0-0.29,0.1-0.29,0.29v9.46c0,0.19,0.1,0.29,0.29,0.29h19.15c0.19,0,0.36,0.07,0.5,0.2c0.13,0.14,0.2,0.3,0.2,0.5v5.66 c0,0.19-0.07,0.36-0.2,0.49c-0.14,0.14-0.3,0.2-0.5,0.2h-26.98c-0.19,0-0.36-0.07-0.49-0.2c-0.14-0.14-0.2-0.3-0.2-0.49v-39.47 c0-0.19,0.07-0.36,0.2-0.5c0.13-0.13,0.3-0.2,0.49-0.2h26.98c0.19,0,0.36,0.07,0.5,0.2c0.13,0.14,0.2,0.3,0.2,0.5v5.66 C434.96,138.05,434.89,138.22,434.76,138.35z"/>
      <path d="M464.36,131.69c0.14-0.13,0.3-0.2,0.5-0.2h6.83c0.19,0,0.36,0.07,0.5,0.2c0.14,0.14,0.2,0.3,0.2,0.5v39.47 c0,0.19-0.07,0.36-0.2,0.49c-0.14,0.14-0.3,0.2-0.5,0.2h-6.6c-0.39,0-0.66-0.16-0.82-0.47l-15.13-25 c-0.08-0.11-0.16-0.16-0.23-0.14c-0.08,0.02-0.11,0.1-0.11,0.26l0.11,24.64c0,0.19-0.07,0.36-0.2,0.49 c-0.14,0.14-0.3,0.2-0.49,0.2h-6.83c-0.19,0-0.36-0.07-0.49-0.2c-0.14-0.14-0.2-0.3-0.2-0.49v-39.47c0-0.19,0.07-0.36,0.2-0.5 c0.13-0.13,0.3-0.2,0.49-0.2h6.6c0.38,0,0.66,0.16,0.82,0.47l15.06,24.87c0.08,0.12,0.16,0.17,0.23,0.15 c0.08-0.02,0.12-0.1,0.12-0.26l-0.06-24.52C464.15,132,464.23,131.83,464.36,131.69z"/>
      <path d="M508.21,131.69c0.14,0.14,0.2,0.3,0.2,0.5v5.72c0,0.19-0.07,0.36-0.2,0.5c-0.14,0.13-0.3,0.2-0.49,0.2h-10.45 c-0.19,0-0.29,0.1-0.29,0.29v32.76c0,0.19-0.07,0.36-0.2,0.49c-0.14,0.14-0.3,0.2-0.5,0.2h-6.83c-0.2,0-0.36-0.07-0.5-0.2 c-0.14-0.14-0.2-0.3-0.2-0.49v-32.76c0-0.19-0.1-0.29-0.29-0.29h-10.16c-0.2,0-0.36-0.07-0.5-0.2c-0.14-0.14-0.2-0.3-0.2-0.5 v-5.72c0-0.19,0.07-0.36,0.2-0.5c0.14-0.13,0.3-0.2,0.5-0.2h29.43C507.91,131.49,508.07,131.56,508.21,131.69z"/>
      <path d="M535.16,171.78l-1.75-5.72c-0.08-0.16-0.18-0.23-0.29-0.23h-14.37c-0.12,0-0.21,0.08-0.29,0.23l-1.7,5.72 c-0.11,0.39-0.37,0.58-0.76,0.58h-7.42c-0.23,0-0.41-0.07-0.53-0.2c-0.11-0.14-0.13-0.34-0.06-0.61l12.61-39.47 c0.12-0.39,0.37-0.58,0.76-0.58h9.17c0.39,0,0.64,0.19,0.76,0.58l12.61,39.47c0.04,0.08,0.06,0.18,0.06,0.29 c0,0.35-0.21,0.53-0.64,0.53h-7.41C535.53,172.37,535.28,172.17,535.16,171.78z M520.79,159.46h10.28c0.23,0,0.31-0.11,0.23-0.35 l-5.26-17.34c-0.04-0.16-0.1-0.22-0.18-0.2c-0.08,0.02-0.14,0.09-0.18,0.2l-5.14,17.34C520.52,159.34,520.6,159.46,520.79,159.46z "/>
      <path d="M549.32,172.16c-0.14-0.14-0.2-0.3-0.2-0.49v-39.47c0-0.19,0.07-0.36,0.2-0.5c0.13-0.13,0.3-0.2,0.49-0.2h6.83 c0.19,0,0.36,0.07,0.49,0.2c0.14,0.14,0.2,0.3,0.2,0.5v32.82c0,0.19,0.1,0.29,0.29,0.29h19.09c0.19,0,0.36,0.07,0.49,0.2 c0.14,0.14,0.2,0.3,0.2,0.5v5.66c0,0.19-0.07,0.36-0.2,0.49c-0.14,0.14-0.3,0.2-0.49,0.2h-26.92 C549.62,172.37,549.45,172.3,549.32,172.16z"/>
    </g>
    <g>
      <g>
        <defs>
          <rect id="SVGID_1_" x="644.85" y="57.41" width="116.11" height="114.95"/>
        </defs>
        <clipPath id="SVGID_00000091696043576357356870000012600901249982870180_">
          <rect x="644.85" y="57.41" width="116.11" height="114.95" transform="matrix(1, 0, 0, 1, 0, 0)" overflow="visible"/>
        </clipPath>
        <path clip-path="url(#SVGID_00000091696043576357356870000012600901249982870180_)" fill="#F26322" d="M645.08,114.89 c0-31.74,25.92-57.48,57.9-57.48c31.98,0,57.9,25.73,57.9,57.48s-25.92,57.48-57.9,57.48C671,172.37,645.08,146.63,645.08,114.89 "/>
        <path clip-path="url(#SVGID_00000091696043576357356870000012600901249982870180_)" fill="#FFFFFF" d="M661.24,90.98 c-1.49,1.45-2.41,3.43-2.41,5.64v36.86c0,2.21,0.92,4.19,2.41,5.64c1.5,1.45,3.54,2.33,5.82,2.33h71.9 c2.28,0,4.32-0.89,5.82-2.33c1.49-1.45,2.41-3.43,2.41-5.64V96.62c0-2.21-0.92-4.19-2.41-5.64c-1.5-1.45-3.54-2.33-5.82-2.33 h-71.9C664.77,88.65,662.73,89.54,661.24,90.98"/>
        <path clip-path="url(#SVGID_00000091696043576357356870000012600901249982870180_)" d="M747.18,133.48 c0,2.21-0.92,4.19-2.41,5.64c-1.5,1.45-3.54,2.33-5.82,2.33h-71.9c-2.28,0-4.32-0.89-5.82-2.33c-1.49-1.45-2.41-3.43-2.41-5.64 V96.62c0-2.21,0.92-4.19,2.41-5.64c1.5-1.45,3.54-2.33,5.82-2.33h71.9c2.28,0,4.32,0.89,5.82,2.33c1.49,1.45,2.41,3.43,2.41,5.64 V133.48z M740.82,84.25v-6.39h-21.14v6.26h-52.62c-7.13,0-12.91,5.6-12.91,12.51v36.86c0,6.91,5.78,12.51,12.91,12.51h71.9 c7.13,0,12.91-5.6,12.91-12.51V96.62C751.86,90.33,747.07,85.12,740.82,84.25"/>
      </g>
      <polygon points="665.35,92.93 668.38,92.93 668.38,102.4 668.44,102.4 672.86,92.93 675.88,92.93 671.76,101.24 676.66,113.67 &#10;&#9;&#9;&#9;673.45,113.67 670.01,104.47 668.38,107.47 668.38,113.67 665.35,113.67 &#9;&#9;"/>
      <path d="M682.77,98.91h-0.06l-1.48,7.51h3.03L682.77,98.91z M681.49,92.93h2.52l4.72,20.74h-3.03l-0.89-4.46h-4.13l-0.89,4.46 h-3.03L681.49,92.93z"/>
      <polygon points="690.05,92.93 692.96,92.93 696.85,103.91 696.91,103.91 700.76,92.93 703.7,92.93 703.7,113.67 700.68,113.67 &#10;&#9;&#9;&#9;700.68,101.06 700.62,101.06 697.62,109.97 696.11,109.97 693.14,101.06 693.08,101.06 693.08,113.67 690.05,113.67 &#9;&#9;"/>
      <polygon points="706.38,92.93 715.4,92.93 715.4,95.73 709.41,95.73 709.41,101.82 714.63,101.82 714.63,104.61 709.41,104.61 &#10;&#9;&#9;&#9;709.41,110.7 715.4,110.7 715.4,113.67 706.38,113.67 &#9;&#9;"/>
      <g>
        <defs>
          <rect id="SVGID_00000121964851877062334030000016911044462655301030_" x="644.85" y="57.41" width="116.11" height="114.95"/>
        </defs>
        <clipPath id="SVGID_00000054979369818124627890000015794485400947317145_">
          <rect x="644.85" y="57.41" width="116.11" height="114.95" transform="matrix(1, 0, 0, 1, 0, 0)" overflow="visible"/>
        </clipPath>
        <path clip-path="url(#SVGID_00000054979369818124627890000015794485400947317145_)" d="M720.27,102.2h1.72 c2.11,0,2.43-1.17,2.43-3.23c0-2.1-0.36-3.23-2.58-3.23h-1.57V102.2z M717.24,92.93h4.87c3.59,0,5.34,2.07,5.34,6.09 c0,2.39-0.68,4.14-2.61,5.18l3.26,9.47h-3.2l-2.82-8.85h-1.81v8.85h-3.03V92.93z"/>
      </g>
      <path d="M734.39,98.91h-0.06l-1.48,7.51h3.03L734.39,98.91z M733.11,92.93h2.52l4.72,20.74h-3.03l-0.89-4.46h-4.12l-0.89,4.46 h-3.03L733.11,92.93z"/>
      <polygon fill="#F26322" points="665.35,117.34 673.95,117.34 673.95,120 668.24,120 668.24,125.8 673.21,125.8 673.21,128.47 &#10;&#9;&#9;&#9;668.24,128.47 668.24,134.27 673.95,134.27 673.95,137.1 665.35,137.1 &#9;&#9;"/>
      <polygon fill="#F26322" points="679.16,126.75 675.4,117.34 678.45,117.34 680.63,123.19 682.83,117.34 685.89,117.34 &#10;&#9;&#9;&#9;682.04,126.75 686.2,137.1 683.14,137.1 680.63,130.44 678.14,137.1 675.09,137.1 &#9;&#9;"/>
      <g>
        <defs>
          <rect id="SVGID_00000180365861796026024460000012420038349193197720_" x="644.85" y="57.41" width="116.11" height="114.95"/>
        </defs>
        <clipPath id="SVGID_00000180365780051414637850000016728350797415049635_">
          <rect x="644.85" y="57.41" width="116.11" height="114.95" transform="matrix(1, 0, 0, 1, 0, 0)" overflow="visible"/>
        </clipPath>
        <path clip-path="url(#SVGID_00000180365780051414637850000016728350797415049635_)" fill="#F26322" d="M690.38,126.72h1.38 c2.35,0,2.37-1.36,2.37-3.33c0-1.86,0-3.39-2.26-3.39h-1.5V126.72z M687.5,117.34h4.33c1.58,0,2.74,0.36,3.73,1.39 c0.99,1.03,1.3,2.28,1.3,4.63c0,1.72-0.14,2.89-0.82,3.97c-0.79,1.28-2.06,2.05-4.18,2.05h-1.47v7.72h-2.88V117.34z"/>
        <path clip-path="url(#SVGID_00000180365780051414637850000016728350797415049635_)" fill="#F26322" d="M701.41,126.16h1.64 c2.01,0,2.32-1.11,2.32-3.08c0-2-0.34-3.08-2.46-3.08h-1.5V126.16z M698.52,117.34h4.64c3.42,0,5.09,1.97,5.09,5.8 c0,2.28-0.65,3.94-2.49,4.94l3.11,9.02h-3.05l-2.68-8.44h-1.72v8.44h-2.88V117.34z"/>
      </g>
      <polygon fill="#F26322" points="710.22,117.34 718.81,117.34 718.81,120 713.1,120 713.1,125.8 718.08,125.8 718.08,128.47 &#10;&#9;&#9;&#9;713.1,128.47 713.1,134.27 718.81,134.27 718.81,137.1 710.22,137.1 &#9;&#9;"/>
      <g>
        <defs>
          <rect id="SVGID_00000035523462787708785520000006782302880529891712_" x="644.85" y="57.41" width="116.11" height="114.95"/>
        </defs>
        <clipPath id="SVGID_00000123426992851270836290000001384768220939783572_">
          <rect x="644.85" y="57.41" width="116.11" height="114.95" transform="matrix(1, 0, 0, 1, 0, 0)" overflow="visible"/>
        </clipPath>
        <path clip-path="url(#SVGID_00000123426992851270836290000001384768220939783572_)" fill="#F26322" d="M729.45,123.03h-2.88 v-0.64c0-1.3-0.57-2.39-2.04-2.39c-1.58,0-1.95,1.25-1.95,2.55c0,1.53,0.14,2.05,1.64,2.64l2.2,0.86 c2.54,0.94,3.02,2.53,3.02,5.41c0,3.33-1.24,5.8-4.97,5.8c-2.8,0-4.92-2.03-4.92-4.69v-1.05h2.88v0.89 c0,1.03,0.57,2.02,2.04,2.02c1.95,0,2.09-1.14,2.09-2.94c0-2.11-0.25-2.44-1.67-3l-2.06-0.83c-2.49-1-3.14-2.61-3.14-5.08 c0-3,1.64-5.41,4.95-5.41c2.88,0,4.81,2.28,4.81,4.47V123.03z"/>
        <path clip-path="url(#SVGID_00000123426992851270836290000001384768220939783572_)" fill="#F26322" d="M740.75,123.03h-2.88 v-0.64c0-1.3-0.57-2.39-2.03-2.39c-1.58,0-1.95,1.25-1.95,2.55c0,1.53,0.14,2.05,1.64,2.64l2.2,0.86 c2.54,0.94,3.02,2.53,3.02,5.41c0,3.33-1.24,5.8-4.97,5.8c-2.8,0-4.92-2.03-4.92-4.69v-1.05h2.88v0.89 c0,1.03,0.57,2.02,2.04,2.02c1.95,0,2.09-1.14,2.09-2.94c0-2.11-0.25-2.44-1.67-3l-2.06-0.83c-2.49-1-3.14-2.61-3.14-5.08 c0-3,1.64-5.41,4.95-5.41c2.88,0,4.81,2.28,4.81,4.47V123.03z"/>
      </g>
    </g>
  </g>
</svg>