<?xml version="1.0" encoding="utf-8"?>
<svg viewBox="11.1 7.63 716.2 219.6" width="716.2" height="219.6" xmlns="http://www.w3.org/2000/svg">
  <defs>
    <style type="text/css">
	.st0{fill:#020203;}
	.st1{clip-path:url(#SVGID_00000003823062962218961070000015192778107834676662_);fill:#EA580C;}
	.st2{clip-path:url(#SVGID_00000003823062962218961070000015192778107834676662_);fill:#FFFFFF;}
	.st3{clip-path:url(#SVGID_00000003823062962218961070000015192778107834676662_);}
	.st4{clip-path:url(#SVGID_00000039113228884051979990000012092310375629314181_);}
	.st5{fill:#EA580C;}
	.st6{clip-path:url(#SVGID_00000038398853831984387850000009531680061904487351_);fill:#EA580C;}
	.st7{clip-path:url(#SVGID_00000018201652754388063470000016059792167955655301_);fill:#EA580C;}
</style>
  </defs>
  <g>
    <path d="M324.16,158.68l-15.05-33.34c-0.16-0.32-0.4-0.49-0.73-0.49H297.2c-0.4,0-0.61,0.21-0.61,0.61v32.87 c0,0.4-0.14,0.73-0.42,1.02c-0.28,0.28-0.62,0.42-1.02,0.42h-14.09c-0.4,0-0.74-0.14-1.02-0.42c-0.28-0.28-0.42-0.62-0.42-1.02 V76.94c0-0.4,0.14-0.74,0.42-1.03c0.27-0.27,0.62-0.42,1.02-0.42h34.43c5.14,0,9.65,1.05,13.55,3.14c3.89,2.09,6.9,5.06,9.02,8.91 c2.13,3.85,3.19,8.31,3.19,13.36c0,5.46-1.36,10.13-4.1,14.03c-2.72,3.89-6.55,6.64-11.43,8.24c-0.4,0.17-0.53,0.45-0.36,0.84 l16.37,34.08c0.16,0.32,0.24,0.56,0.24,0.73c0,0.64-0.44,0.96-1.32,0.96h-14.81C325.04,159.77,324.48,159.41,324.16,158.68z M296.59,90.66v20.59c0,0.4,0.21,0.6,0.61,0.6h15.76c3.37,0,6.12-1,8.25-3.01c2.13-2,3.19-4.61,3.19-7.83 c0-3.2-1.07-5.84-3.19-7.88c-2.13-2.05-4.88-3.08-8.25-3.08H297.2C296.79,90.06,296.59,90.26,296.59,90.66z"/>
    <path d="M411.64,89.64c-0.28,0.28-0.63,0.42-1.03,0.42h-39.49c-0.4,0-0.61,0.21-0.61,0.61v18.66c0,0.4,0.21,0.61,0.61,0.61h25.89 c0.39,0,0.73,0.14,1.02,0.42s0.42,0.62,0.42,1.02v11.68c0,0.4-0.14,0.74-0.42,1.03c-0.28,0.27-0.63,0.42-1.02,0.42h-25.89 c-0.4,0-0.61,0.2-0.61,0.6v19.51c0,0.4,0.21,0.6,0.61,0.6h39.49c0.4,0,0.74,0.15,1.03,0.42c0.27,0.28,0.42,0.63,0.42,1.03v11.68 c0,0.4-0.15,0.73-0.42,1.02c-0.28,0.28-0.63,0.42-1.03,0.42h-55.62c-0.4,0-0.74-0.14-1.02-0.42c-0.28-0.28-0.42-0.62-0.42-1.02 V76.94c0-0.4,0.14-0.74,0.42-1.03c0.27-0.27,0.62-0.42,1.02-0.42h55.62c0.4,0,0.74,0.15,1.03,0.42c0.27,0.28,0.42,0.63,0.42,1.03 v11.68C412.06,89.02,411.91,89.36,411.64,89.64z"/>
    <path d="M472.67,75.91c0.28-0.27,0.63-0.42,1.03-0.42h14.08c0.4,0,0.74,0.15,1.03,0.42c0.28,0.28,0.42,0.63,0.42,1.03v81.39 c0,0.4-0.14,0.73-0.42,1.02c-0.28,0.28-0.63,0.42-1.03,0.42h-13.6c-0.8,0-1.36-0.32-1.69-0.96l-31.19-51.54 c-0.16-0.24-0.32-0.33-0.48-0.29s-0.24,0.22-0.24,0.54l0.24,50.81c0,0.4-0.14,0.73-0.42,1.02c-0.28,0.28-0.62,0.42-1.02,0.42 h-14.09c-0.4,0-0.74-0.14-1.02-0.42c-0.28-0.28-0.42-0.62-0.42-1.02V76.94c0-0.4,0.14-0.74,0.42-1.03 c0.27-0.27,0.62-0.42,1.02-0.42h13.61c0.79,0,1.36,0.32,1.69,0.97l31.06,51.28c0.16,0.24,0.32,0.34,0.48,0.3 c0.16-0.04,0.24-0.22,0.24-0.54l-0.13-50.57C472.25,76.54,472.39,76.19,472.67,75.91z"/>
    <path d="M563.08,75.91c0.28,0.28,0.42,0.63,0.42,1.03v11.8c0,0.4-0.14,0.74-0.42,1.03c-0.28,0.27-0.62,0.42-1.02,0.42h-21.56 c-0.4,0-0.6,0.2-0.6,0.6v67.55c0,0.4-0.15,0.73-0.42,1.02c-0.28,0.28-0.63,0.42-1.03,0.42h-14.08c-0.41,0-0.74-0.14-1.03-0.42 c-0.28-0.28-0.42-0.62-0.42-1.02V90.78c0-0.4-0.2-0.6-0.6-0.6h-20.95c-0.41,0-0.74-0.15-1.03-0.42c-0.28-0.28-0.42-0.63-0.42-1.03 v-11.8c0-0.4,0.14-0.74,0.42-1.03c0.28-0.27,0.62-0.42,1.03-0.42h60.68C562.47,75.49,562.8,75.63,563.08,75.91z"/>
    <path d="M618.65,158.56l-3.62-11.8c-0.16-0.32-0.36-0.48-0.6-0.48h-29.62c-0.24,0-0.44,0.16-0.6,0.48l-3.5,11.8 c-0.24,0.8-0.76,1.21-1.56,1.21h-15.29c-0.48,0-0.84-0.14-1.09-0.42c-0.24-0.28-0.27-0.71-0.12-1.26l26-81.39 c0.24-0.8,0.76-1.21,1.57-1.21h18.9c0.8,0,1.32,0.4,1.57,1.21l26,81.39c0.08,0.16,0.12,0.36,0.12,0.6c0,0.73-0.44,1.09-1.32,1.09 h-15.28C619.41,159.77,618.89,159.37,618.65,158.56z M589.03,133.16h21.19c0.48,0,0.64-0.24,0.48-0.72l-10.84-35.76 c-0.08-0.32-0.2-0.46-0.36-0.42c-0.16,0.04-0.28,0.19-0.36,0.42l-10.59,35.76C588.47,132.92,588.63,133.16,589.03,133.16z"/>
    <path d="M647.85,159.35c-0.28-0.28-0.42-0.62-0.42-1.02V76.94c0-0.4,0.14-0.74,0.42-1.03c0.27-0.27,0.62-0.42,1.02-0.42h14.09 c0.4,0,0.73,0.15,1.02,0.42c0.28,0.28,0.42,0.63,0.42,1.03v67.67c0,0.4,0.21,0.6,0.61,0.6h39.37c0.4,0,0.73,0.15,1.02,0.42 c0.28,0.28,0.42,0.63,0.42,1.03v11.68c0,0.4-0.14,0.73-0.42,1.02c-0.28,0.28-0.62,0.42-1.02,0.42h-55.51 C648.46,159.77,648.12,159.63,647.85,159.35z"/>
  </g>
  <path class="st0" d="M262.4,176.89V155.4H249.5v25.95c0,4.66,3.78,8.43,8.43,8.43h25.95v-12.89H262.4z"/>
  <path d="M714.41,66.89v21.49h12.89V62.43c0-4.66-3.78-8.43-8.43-8.43h-25.95v12.89H714.41z"/>
  <g>
    <g>
      <defs>
        <rect id="SVGID_1_" x="10.66" y="7.63" width="221.8" height="219.59"/>
      </defs>
      <clipPath id="SVGID_00000028302144220254286140000014700726342129822388_">
        <rect x="10.66" y="7.63" width="221.8" height="219.59" transform="matrix(1, 0, 0, 1, 0, 0)" style="overflow: visible;"/>
      </clipPath>
      <path style="clip-path:url(#SVGID_00000028302144220254286140000014700726342129822388_);fill:#EA580C;" d="M11.1,117.43 c0-60.64,49.52-109.8,110.6-109.8c61.09,0,110.6,49.16,110.6,109.8s-49.52,109.8-110.6,109.8 C60.62,227.22,11.1,178.06,11.1,117.43"/>
      <path style="clip-path:url(#SVGID_00000028302144220254286140000014700726342129822388_);fill:#FFFFFF;" d="M41.96,71.76 c-2.85,2.77-4.6,6.55-4.6,10.77v70.42c0,4.22,1.75,8,4.6,10.77c2.86,2.76,6.76,4.46,11.12,4.46h137.34c4.36,0,8.26-1.7,11.12-4.46 c2.85-2.77,4.6-6.55,4.61-10.77V82.53c0-4.22-1.75-8-4.61-10.77c-2.86-2.76-6.76-4.46-11.12-4.46H53.08 C48.72,67.3,44.82,69,41.96,71.76"/>
      <path style="clip-path:url(#SVGID_00000028302144220254286140000014700726342129822388_);" d="M206.14,152.94 c0,4.22-1.75,8-4.61,10.77c-2.86,2.76-6.76,4.46-11.12,4.46H53.08c-4.36,0-8.26-1.7-11.12-4.46c-2.85-2.77-4.6-6.55-4.61-10.77 V82.53c0-4.22,1.75-8,4.61-10.77c2.86-2.76,6.76-4.46,11.12-4.46h137.34c4.36,0,8.26,1.7,11.12,4.46 c2.85,2.77,4.6,6.55,4.61,10.77V152.94z M193.99,58.89v-12.2h-40.39v11.95H53.08c-13.63,0-24.67,10.69-24.67,23.89v70.42 c0,13.2,11.04,23.89,24.67,23.89h137.34c13.63,0,24.67-10.69,24.67-23.89V82.53C215.09,70.5,205.92,60.56,193.99,58.89"/>
    </g>
    <polygon points="49.83,75.49 55.61,75.49 55.61,93.57 55.72,93.57 64.16,75.49 69.94,75.49 62.07,91.34 71.42,115.1 65.3,115.1&#10;&#9;&#9;58.72,97.52 55.61,103.25 55.61,115.1 49.83,115.1 &#9;"/>
    <path d="M83.09,86.89h-0.11l-2.83,14.35h5.78L83.09,86.89z M80.66,75.49h4.82l9.01,39.61H88.7l-1.7-8.51h-7.88l-1.7,8.51h-5.78 L80.66,75.49z"/>
    <polygon points="97.01,75.49 102.57,75.49 109.99,96.46 110.1,96.46 117.47,75.49 123.08,75.49 123.08,115.1 117.3,115.1&#10;&#9;&#9;117.3,91.01 117.19,91.01 111.46,108.04 108.57,108.04 102.91,91.01 102.79,91.01 102.79,115.1 97.01,115.1 &#9;"/>
    <polygon points="128.2,75.49 145.43,75.49 145.43,80.83 133.98,80.83 133.98,92.46 143.96,92.46 143.96,97.8 133.98,97.8&#10;&#9;&#9;133.98,109.43 145.43,109.43 145.43,115.1 128.2,115.1 &#9;"/>
    <g>
      <defs>
        <rect id="SVGID_00000052796204462929929050000002080444870339481482_" x="10.66" y="7.63" width="221.8" height="219.59"/>
      </defs>
      <clipPath id="SVGID_00000051380407244340562370000004086973562800807866_">
        <rect x="10.66" y="7.63" width="221.8" height="219.59" transform="matrix(1, 0, 0, 1, 0, 0)" style="overflow: visible;"/>
      </clipPath>
      <path style="clip-path:url(#SVGID_00000051380407244340562370000004086973562800807866_);" d="M154.73,93.18h3.29 c4.02,0,4.65-2.23,4.65-6.18c0-4.01-0.68-6.18-4.93-6.18h-3.01V93.18z M148.95,75.49h9.3c6.86,0,10.2,3.95,10.2,11.63 c0,4.56-1.31,7.9-4.99,9.9l6.23,18.08h-6.12l-5.38-16.91h-3.46v16.91h-5.78V75.49z"/>
    </g>
    <path d="M181.71,86.89h-0.11l-2.83,14.35h5.78L181.71,86.89z M179.27,75.49h4.82l9.01,39.61h-5.78l-1.7-8.51h-7.88l-1.7,8.51h-5.78 L179.27,75.49z"/>
    <polygon class="st5" points="49.83,122.1 66.24,122.1 66.24,127.19 55.33,127.19 55.33,138.27 64.84,138.27 64.84,143.36&#10;&#9;&#9;55.33,143.36 55.33,154.44 66.24,154.44 66.24,159.85 49.83,159.85 &#9;"/>
    <polygon class="st5" points="76.2,140.08 69.02,122.1 74.85,122.1 79.01,133.29 83.22,122.1 89.05,122.1 81.71,140.08&#10;&#9;&#9;89.64,159.85 83.81,159.85 79.01,147.13 74.25,159.85 68.42,159.85 &#9;"/>
    <g>
      <defs>
        <rect id="SVGID_00000039832963075640226860000000041565477236150666_" x="10.66" y="7.63" width="221.8" height="219.59"/>
      </defs>
      <clipPath id="SVGID_00000103985101670032349880000005362629798503506052_">
        <rect x="10.66" y="7.63" width="221.8" height="219.59" transform="matrix(1, 0, 0, 1, 0, 0)" style="overflow: visible;"/>
      </clipPath>
      <path style="clip-path:url(#SVGID_00000103985101670032349880000005362629798503506052_);fill:#EA580C;" d="M97.63,140.02h2.65 c4.48,0,4.54-2.6,4.54-6.36c0-3.55,0-6.47-4.32-6.47h-2.86V140.02z M92.13,122.1h8.26c3.02,0,5.24,0.69,7.13,2.65 c1.89,1.96,2.48,4.35,2.48,8.85c0,3.29-0.27,5.51-1.57,7.58c-1.51,2.44-3.94,3.92-7.99,3.92h-2.81v14.74h-5.51V122.1z"/>
      <path style="clip-path:url(#SVGID_00000103985101670032349880000005362629798503506052_);fill:#EA580C;" d="M118.7,138.96h3.13 c3.83,0,4.43-2.12,4.43-5.88c0-3.82-0.65-5.89-4.7-5.89h-2.86V138.96z M113.19,122.1h8.86c6.53,0,9.72,3.76,9.72,11.08 c0,4.35-1.24,7.53-4.75,9.44l5.94,17.23h-5.83l-5.13-16.12h-3.29v16.12h-5.51V122.1z"/>
    </g>
    <polygon class="st5" points="135.53,122.1 151.95,122.1 151.95,127.19 141.04,127.19 141.04,138.27 150.54,138.27 150.54,143.36&#10;&#9;&#9;141.04,143.36 141.04,154.44 151.95,154.44 151.95,159.85 135.53,159.85 &#9;"/>
    <g>
      <defs>
        <rect id="SVGID_00000116933089695037536710000017511252976344477096_" x="10.66" y="7.63" width="221.8" height="219.59"/>
      </defs>
      <clipPath id="SVGID_00000050656510810048207870000006198327349449643699_">
        <rect x="10.66" y="7.63" width="221.8" height="219.59" transform="matrix(1, 0, 0, 1, 0, 0)" style="overflow: visible;"/>
      </clipPath>
      <path style="clip-path:url(#SVGID_00000050656510810048207870000006198327349449643699_);fill:#EA580C;" d="M172.27,132.97h-5.51 v-1.22c0-2.49-1.08-4.56-3.89-4.56c-3.02,0-3.73,2.39-3.73,4.88c0,2.92,0.27,3.92,3.13,5.04l4.21,1.64 c4.86,1.8,5.78,4.82,5.78,10.34c0,6.36-2.38,11.08-9.5,11.08c-5.35,0-9.4-3.87-9.4-8.96v-2.01h5.51v1.7 c0,1.96,1.08,3.87,3.89,3.87c3.72,0,4-2.17,4-5.62c0-4.03-0.49-4.67-3.18-5.73l-3.94-1.59c-4.75-1.91-5.99-4.98-5.99-9.7 c0-5.73,3.13-10.34,9.45-10.34c5.51,0,9.18,4.35,9.18,8.53V132.97z"/>
      <path style="clip-path:url(#SVGID_00000050656510810048207870000006198327349449643699_);fill:#EA580C;" d="M193.86,132.97h-5.51 v-1.22c0-2.49-1.08-4.56-3.89-4.56c-3.02,0-3.73,2.39-3.73,4.88c0,2.92,0.27,3.92,3.13,5.04l4.21,1.64 c4.86,1.8,5.78,4.82,5.78,10.34c0,6.36-2.38,11.08-9.5,11.08c-5.35,0-9.4-3.87-9.4-8.96v-2.01h5.51v1.7 c0,1.96,1.08,3.87,3.89,3.87c3.72,0,3.99-2.17,3.99-5.62c0-4.03-0.49-4.67-3.19-5.73l-3.94-1.59c-4.75-1.91-5.99-4.98-5.99-9.7 c0-5.73,3.13-10.34,9.45-10.34c5.51,0,9.18,4.35,9.18,8.53V132.97z"/>
    </g>
  </g>
</svg>